<svg xmlns="http://www.w3.org/2000/svg" width="45" height="45"><path d="M32.238 24.393c.005-.014 3.723-8.698 3.529-8.799-.188-.099-2.591 4.812-4.342 8.137l-.55-.289c1.526-3.443 3.896-8.371 3.702-8.47-.188-.099-2.744 4.729-4.604 7.999l-.55-.288c1.632-3.39 4.153-8.236 3.964-8.335-.19-.099-2.904 4.647-4.871 7.86l-.553-.291c1.742-3.331 4.417-8.096 4.229-8.195-.191-.101-4.152 6.226-5.23 7.904-.939 1.467-.876 3.505.325 4.599l-4.928 8.621-5.059-8.615c1.963-1.52 2.291-4.537.681-6.894-1.689-2.519-5.22-5.316-7.323-4.26-2.037 1.179-1.638 5.666-.457 8.46 1.087 2.638 3.792 4.021 6.137 3.213l4.938 9.988-2.161 3.783C10.601 38.929 4.154 31.474 4.154 22.5 4.156 12.368 12.368 4.155 22.5 4.155s18.344 8.212 18.344 18.344c0 9.034-6.535 16.524-15.134 18.046-.748-1.273-1.495-2.545-2.241-3.818 1.6-3.33 3.197-6.66 4.797-9.992 1.564.395 3.211-.582 3.967-2.346.792-1.846.003.004.005.004zm-8.049 18.228c-.561.047-1.119.086-1.689.086-.626 0-1.244-.038-1.856-.094-.349.726-.698 1.451-1.045 2.178.952.124 1.917.209 2.901.209.939 0 1.861-.077 2.771-.189l-1.082-2.19zM22.5 0C10.094 0 0 10.094 0 22.5c0 10.494 7.231 19.307 16.966 21.783l1.178-2.061C9.09 40.223 2.292 32.145 2.292 22.5c0-11.143 9.065-20.207 20.207-20.207 11.142 0 20.207 9.065 20.207 20.207 0 9.695-6.868 17.812-15.992 19.757l1.206 2.056C37.712 41.876 45 33.035 45 22.5 45 10.094 34.906 0 22.5 0zm.79 40.805l-.902-1.826-.871 1.815c.328.017.652.049.983.049.267.001.525-.029.79-.038z"/></svg>